# Blender v2.90.1 OBJ File: 'Pyramid.blend'
# www.blender.org
o Pyramid_Cube
v 1.000000 0.000000 -1.000000
v 1.000000 0.000000 1.000000
v -1.000000 0.000000 -1.000000
v 0.000000 2.000000 0.000000
v -1.000000 0.000000 1.000000
vt 0.823737 0.233333
vt 0.500000 1.233333
vt 0.176263 0.233333
vt 0.823737 0.233333
vt 0.176263 1.000000
vt 0.823737 1.000000
vt 0.823737 0.000000
vt 0.176263 0.000000
vt 0.823737 0.233333
vt 0.176263 0.233333
vt 0.176263 0.233333
vn 0.0000 0.4472 0.8944
vn -0.8944 0.4472 0.0000
vn 0.0000 -1.0000 0.0000
vn 0.8944 0.4472 0.0000
vn 0.0000 0.4472 -0.8944
s off
f 2/1/1 4/2/1 5/3/1
f 5/3/2 4/2/2 3/4/2
f 3/5/3 1/6/3 2/7/3 5/8/3
f 1/9/4 4/2/4 2/10/4
f 3/11/5 4/2/5 1/9/5
