# Blender v2.90.1 OBJ File: ''
# www.blender.org
o Cube
v 1.000000 0.184396 -0.815604
v -1.000000 -0.000000 -1.000000
v 1.000000 0.184396 0.815604
v -1.000000 -0.000000 1.000000
v 1.000000 1.815604 -0.815604
v -1.000000 2.000000 -1.000000
v 1.000000 1.815604 0.815604
v -1.000000 2.000000 1.000000
v 1.000000 0.000000 1.000000
v 1.000000 2.000000 1.000000
v 1.000000 0.000000 -1.000000
v 1.000000 2.000000 -1.000000
v 1.831125 0.395505 0.604495
v 1.831125 1.604495 0.604495
v 1.831125 0.395505 -0.604495
v 1.831125 1.604495 -0.604495
v 1.930098 0.365312 0.634689
v 1.930098 1.634689 0.634689
v 1.930098 0.365312 -0.634689
v 1.930098 1.634689 -0.634689
vt 0.498591 0.221646
vt 0.498591 0.778354
vt 0.682247 0.706305
vt 0.682247 0.293695
vt 0.056644 0.158715
vt 0.498591 0.158715
vt 0.498591 0.841285
vt 0.056644 0.841285
vt 0.056644 0.158715
vt 0.498591 0.158715
vt 0.498591 0.841285
vt 0.056644 0.841285
vt 0.720973 0.841285
vt 0.720973 0.158715
vt 0.279027 0.158715
vt 0.279027 0.841285
vt 0.056644 0.841285
vt 0.498591 0.841285
vt 0.498591 0.158715
vt 0.056644 0.158715
vt 0.319773 0.221646
vt 0.319773 0.778354
vt 0.279027 0.841285
vt 0.279027 0.158715
vt 0.680227 0.221646
vt 0.720973 0.158715
vt 0.680227 0.778354
vt 0.720973 0.841285
vt 0.633577 0.706305
vt 0.366423 0.706305
vt 0.312634 0.789380
vt 0.687366 0.789380
vt 0.498591 0.221646
vt 0.498591 0.778354
vt 0.682247 0.706305
vt 0.682247 0.293695
vt 0.498591 0.221646
vt 0.682247 0.293695
vt 0.498591 0.778354
vt 0.682247 0.706305
vt 0.687366 0.210620
vt 0.312634 0.210620
vt 0.366423 0.293695
vt 0.633577 0.293695
vn 0.2462 0.0000 -0.9692
vn -0.0000 0.0000 1.0000
vn 0.0000 1.0000 0.0000
vn -1.0000 -0.0000 0.0000
vn 0.0000 -1.0000 0.0000
vn -0.0000 0.0000 -1.0000
vn 1.0000 0.0000 0.0000
vn -0.2918 0.9565 0.0000
vn 0.2462 -0.9692 0.0000
vn 0.2462 0.9692 0.0000
vn 0.2462 0.0000 0.9692
vn -0.2918 -0.0000 0.9565
vn -0.2918 -0.0000 -0.9565
vn -0.2918 -0.9565 0.0000
s off
f 1/1/1 5/2/1 16/3/1 15/4/1
f 4/5/2 9/6/2 10/7/2 8/8/2
f 8/9/3 10/10/3 12/11/3 6/12/3
f 6/13/4 2/14/4 4/15/4 8/16/4
f 2/17/5 11/18/5 9/6/5 4/5/5
f 6/12/6 12/11/6 11/19/6 2/20/6
f 3/21/7 7/22/7 10/23/7 9/24/7
f 1/25/7 3/21/7 9/24/7 11/26/7
f 7/22/7 5/27/7 12/28/7 10/23/7
f 5/27/7 1/25/7 11/26/7 12/28/7
f 16/29/8 14/30/8 18/31/8 20/32/8
f 3/33/9 1/34/9 15/35/9 13/36/9
f 5/2/10 7/37/10 14/38/10 16/3/10
f 7/39/11 3/33/11 13/36/11 14/40/11
f 19/41/7 20/32/7 18/31/7 17/42/7
f 14/30/12 13/43/12 17/42/12 18/31/12
f 15/44/13 16/29/13 20/32/13 19/41/13
f 13/43/14 15/44/14 19/41/14 17/42/14
